<?xml version="1.0" encoding="UTF-8" standalone="no"?>
<!-- Created with Inkscape (http://www.inkscape.org/) -->

<svg
   xmlns:osb="http://www.openswatchbook.org/uri/2009/osb"
   xmlns:dc="http://purl.org/dc/elements/1.1/"
   xmlns:cc="http://creativecommons.org/ns#"
   xmlns:rdf="http://www.w3.org/1999/02/22-rdf-syntax-ns#"
   xmlns:svg="http://www.w3.org/2000/svg"
   xmlns="http://www.w3.org/2000/svg"
   xmlns:sodipodi="http://sodipodi.sourceforge.net/DTD/sodipodi-0.dtd"
   xmlns:inkscape="http://www.inkscape.org/namespaces/inkscape"
   width="210mm"
   height="297mm"
   id="svg2"
   version="1.1"
   inkscape:version="0.48.3.1 r9886"
   sodipodi:docname="camera.svg">
  <defs
     id="defs4">
    <linearGradient
       id="linearGradient3826"
       osb:paint="solid">
      <stop
         style="stop-color:#1a1a1a;stop-opacity:1;"
         offset="0"
         id="stop3828" />
    </linearGradient>
  </defs>
  <sodipodi:namedview
     id="base"
     pagecolor="#ffffff"
     bordercolor="#666666"
     borderopacity="1.0"
     inkscape:pageopacity="0.0"
     inkscape:pageshadow="2"
     inkscape:zoom="0.7"
     inkscape:cx="700.10099"
     inkscape:cy="881.37897"
     inkscape:document-units="px"
     inkscape:current-layer="layer1"
     showgrid="false"
     inkscape:window-width="1399"
     inkscape:window-height="849"
     inkscape:window-x="0"
     inkscape:window-y="29"
     inkscape:window-maximized="1" />
  <metadata
     id="metadata7">
    <rdf:RDF>
      <cc:Work
         rdf:about="">
        <dc:format>image/svg+xml</dc:format>
        <dc:type
           rdf:resource="http://purl.org/dc/dcmitype/StillImage" />
        <dc:title></dc:title>
      </cc:Work>
    </rdf:RDF>
  </metadata>
  <g
     inkscape:label="Camada 1"
     inkscape:groupmode="layer"
     id="layer1">
    <g
       id="g5308"
       inkscape:export-filename="/projetos/dnteam/xut/data/gui/main/camera.png"
       inkscape:export-xdpi="44"
       inkscape:export-ydpi="44">
      <path
         transform="matrix(1.0581396,0,0,1,-29.598015,0)"
         d="m 415.71428,133.07646 a 61.42857,65 0 1 1 -122.85714,0 61.42857,65 0 1 1 122.85714,0 z"
         sodipodi:ry="65"
         sodipodi:rx="61.42857"
         sodipodi:cy="133.07646"
         sodipodi:cx="354.28571"
         id="path5306"
         style="fill:#cccccc;fill-opacity:1;fill-rule:nonzero;stroke:none"
         sodipodi:type="arc" />
      <g
         inkscape:export-ydpi="44"
         inkscape:export-xdpi="44"
         inkscape:export-filename="/projetos/dnteam/xut/data/gui/main/camera.png"
         transform="matrix(-0.32346323,0,0,0.29625281,446.06851,45.022668)"
         id="g5281">
        <path
           style="fill:#1a1a1a;fill-opacity:1;stroke:#000000;stroke-width:1px;stroke-linecap:butt;stroke-linejoin:miter;stroke-opacity:1"
           d="m 244.96199,241.71476 -0.50507,-38.89087 6.06091,0 8.08122,5.55584 0,-7.57614 114.14724,-2.02031 8.08122,10.6066 36.36549,-10.6066 6.06092,-5.55584 6.06091,8.08122 -0.50507,66.16499 -12.12183,-6.06091 -59.59901,2.0203 0,-5.05076 -22.22335,2.52538 -17.17259,3.53554 -1.01016,7.07106 7.07107,4.54569 0,12.62691 -38.89087,1.51523 1.51523,-11.11168 5.55584,-6.06092 -2.02031,-6.56599 -16.66752,-1.01015 -13.13198,-7.57614 z"
           id="path3050"
           inkscape:connector-curvature="0" />
        <path
           sodipodi:type="arc"
           style="fill:#999999;fill-opacity:1;fill-rule:nonzero;stroke:none"
           id="path3052"
           sodipodi:cx="264.91251"
           sodipodi:cy="174.03455"
           sodipodi:rx="35.102802"
           sodipodi:ry="34.345188"
           d="m 300.01531,174.03455 c 0,18.96832 -15.71606,34.34518 -35.1028,34.34518 -19.38675,0 -35.10281,-15.37686 -35.10281,-34.34518 0,-18.96833 15.71606,-34.34519 35.10281,-34.34519 19.38674,0 35.1028,15.37686 35.1028,34.34519 z"
           transform="translate(1.5152288,3.9796949)" />
        <path
           transform="translate(55.134534,3.4543135)"
           d="m 300.01531,174.03455 c 0,18.96832 -15.71606,34.34518 -35.1028,34.34518 -19.38675,0 -35.10281,-15.37686 -35.10281,-34.34518 0,-18.96833 15.71606,-34.34519 35.10281,-34.34519 19.38674,0 35.1028,15.37686 35.1028,34.34519 z"
           sodipodi:ry="34.345188"
           sodipodi:rx="35.102802"
           sodipodi:cy="174.03455"
           sodipodi:cx="264.91251"
           id="path3054"
           style="fill:#999999;fill-opacity:1;fill-rule:nonzero;stroke:none"
           sodipodi:type="arc" />
        <path
           style="fill:#999999;stroke:#000000;stroke-width:1px;stroke-linecap:butt;stroke-linejoin:miter;stroke-opacity:1"
           d="m 291.42901,289.19193 -29.29442,85.86297 -21.71828,87.3782 28.78934,-87.3782 30.80966,-86.87312 4.04061,103.03556 5.55584,86.36804 5.05076,-123.23861 -8.5863,-66.67006 23.73859,43.43655 45.96194,130.30968 -18.68783,-74.75129 -22.72843,-62.12438 -20.70812,-37.88072 z"
           id="path3056"
           inkscape:connector-curvature="0" />
      </g>
    </g>
  </g>
</svg>
